<mxfile host="app.diagrams.net" modified="2023-04-09T21:19:22.439Z" agent="Mozilla/5.0 (Windows NT 10.0; Win64; x64) AppleWebKit/537.36 (KHTML, like Gecko) Chrome/111.0.0.0 Safari/537.36" etag="usV091iJIRnl4XR6Avt-" version="21.1.5" type="github">
  <diagram name="Page-1" id="IjU2RDQJvNfrcLGIvYw9">
    <mxGraphModel dx="1050" dy="549" grid="1" gridSize="10" guides="1" tooltips="1" connect="1" arrows="1" fold="1" page="1" pageScale="1" pageWidth="850" pageHeight="1100" math="0" shadow="0">
      <root>
        <mxCell id="0" />
        <mxCell id="1" parent="0" />
        <mxCell id="KvMKW4PbIyX9SEnfMwE_-1" value="&lt;?xml version=&quot;1.0&quot; encoding=&quot;UTF-8&quot;?&gt; &#xa;&lt;mxfile&gt; &#xa;  &lt;diagram id=&quot;1&quot;&gt; &#xa;    &lt;mxGraphModel dx=&quot;1422&quot; dy=&quot;635&quot; grid=&quot;1&quot; gridSize=&quot;10&quot; guides=&quot;1&quot; tooltips=&quot;1&quot; connect=&quot;1&quot; arrows=&quot;1&quot; fold=&quot;1&quot; page=&quot;0&quot; pageScale=&quot;1&quot; pageWidth=&quot;827&quot; pageHeight=&quot;1169&quot; background=&quot;#ffffff&quot;&gt; &#xa;      &lt;root&gt; &#xa;        &lt;mxCell id=&quot;0&quot;/&gt; &#xa;        &lt;mxCell id=&quot;1&quot; parent=&quot;0&quot;/&gt; &#xa;        &lt;mxCell id=&quot;6&quot; value=&quot;YOLO Raspberry Pi 1&quot; style=&quot;shape=mxgraph.networks.router;fillColor=#00ff00;gradientColor=#00ff00;rounded=1;whiteSpace=wrap;html=1;shadow=1;dashed=0;strokeColor=#000000;labelBackgroundColor=#ffffff;&quot; parent=&quot;1&quot; vertex=&quot;1&quot;&gt; &#xa;          &lt;mxGeometry x=&quot;100&quot; y=&quot;50&quot; width=&quot;70&quot; height=&quot;70&quot; as=&quot;geometry&quot;/&gt; &#xa;        &lt;/mxCell&gt; &#xa;        &lt;mxCell id=&quot;7&quot; value=&quot;YOLO Raspberry Pi 2&quot; style=&quot;shape=mxgraph.networks.router;fillColor=#00ff00;gradientColor=#00ff00;rounded=1;whiteSpace=wrap;html=1;shadow=1;dashed=0;strokeColor=#000000;labelBackgroundColor=#ffffff;&quot; parent=&quot;1&quot; vertex=&quot;1&quot;&gt; &#xa;          &lt;mxGeometry x=&quot;300&quot; y=&quot;50&quot; width=&quot;70&quot; height=&quot;70&quot; as=&quot;geometry&quot;/&gt; &#xa;        &lt;/mxCell&gt; &#xa;        &lt;mxCell id=&quot;8&quot; value=&quot;YOLO Raspberry Pi 3&quot; style=&quot;shape=mxgraph.networks.router;fillColor=#00ff00;gradientColor=#00ff00;rounded=1;whiteSpace=wrap;html=1;shadow=1;dashed=0;strokeColor=#000000;labelBackgroundColor=#ffffff;&quot; parent=&quot;1&quot; vertex=&quot;1&quot;&gt; &#xa;          &lt;mxGeometry x=&quot;500&quot; y=&quot;50&quot; width=&quot;70&quot; height=&quot;70&quot; as=&quot;geometry&quot;/&gt; &#xa;        &lt;/mxCell&gt; &#xa;        &lt;mxCell id=&quot;9&quot; value=&quot;YOLO Raspberry Pi 4&quot; style=&quot;shape=mxgraph.networks.router;fillColor=#00ff00;gradientColor=#00ff00;rounded=1;whiteSpace=wrap;html=1;shadow=1;dashed=0;strokeColor=#000000;labelBackgroundColor=#ffffff;&quot; parent=&quot;1&quot; vertex=&quot;1&quot;&gt; &#xa;          &lt;mxGeometry x=&quot;700&quot; y=&quot;50&quot; width=&quot;70&quot; height=&quot;70&quot; as=&quot;geometry&quot;/&gt; &#xa;        &lt;/mxCell&gt; &#xa;        &lt;mxCell id=&quot;10&quot; value=&quot;EP-D3QN Raspberry Pi (center)&quot; style=&quot;shape=mxgraph.networks.server;fillColor=#0000ff;gradientColor=#0000ff;rounded=1;whiteSpace=wrap;html=1;shadow=1;dashed=0;strokeColor=#000000;labelBackgroundColor=#ffffff;&quot; parent=&quot;1&quot; vertex=&quot;1&quot;&gt; &#xa;          &lt;mxGeometry x=&quot;400&quot; y=&quot;250&quot; width=&quot;150&quot; height=&quot;70&quot; as=&quot;geometry&quot;/&gt; &#xa;        &lt;/mxCell&gt; &#xa;        &lt;mxCell id=&quot;11&quot; style=&quot;edgeStyle=none;endArrow=none;startArrow=none;&quot; parent=&quot;1&quot; source=&quot;6&quot; target=&quot;10&quot; edge=&quot;1&quot;&gt; &#xa;          &lt;mxGeometry relative=&quot;1&quot; as=&quot;geometry&quot;/&gt; &#xa;        &lt;/mxCell&gt; &#xa;        &lt;mxCell id=&quot;12&quot; style" style="text;whiteSpace=wrap;html=1;" vertex="1" parent="1">
          <mxGeometry x="40" y="40" width="710" height="370" as="geometry" />
        </mxCell>
      </root>
    </mxGraphModel>
  </diagram>
</mxfile>
